<svg viewBox="20.4 20.4 43.02 42.98"
     fill="none"
     xmlns="http://www.w3.org/2000/svg">
  <path d="M41.8878 27.9263 C34.1892 27.9263 27.9258 34.1897 27.9258 41.8883
           C27.9258 49.5869 34.1892 55.8503 41.8878 55.8503
           C49.5864 55.8503 55.8498 49.5869 55.8498 41.8883
           C55.8498 34.1897 49.5864 27.9263 41.8878 27.9263 Z
           M41.8878 49.1137 C37.8968 49.1137 34.6624 45.8793 34.6624 41.8883
           C34.6624 37.8973 37.8968 34.6629 41.8878 34.6629
           C45.8788 34.6629 49.1132 37.8973 49.1132 41.8883
           C49.1132 45.8793 45.8788 49.1137 41.8878 49.1137 Z"
        fill="black" />
  <path d="M43.0581 25.6329 V20.4199 C54.3889 21.0257 63.3901 30.4065 63.3901 41.8881
           C63.3901 53.3697 54.3889 62.7479 43.0581 63.3563 V58.1433
           C51.5029 57.5401 58.1901 50.4837 58.1901 41.8881
           C58.1901 33.2925 51.5029 26.2361 43.0581 25.6329 Z
           M29.5745 52.5481 C27.3359 49.9637 25.8929 46.6721 25.6355 43.0581 H20.4199
           C20.6903 48.1151 22.7131 52.7041 25.8825 56.2375 L29.5719 52.5481 H29.5745 Z
           M40.7182 63.3563 V58.1433 C37.1016 57.8859 33.81 56.4455 31.2256 54.2043 L27.5362 57.8937
           C31.0722 61.0657 35.6612 63.0859 40.7156 63.3563 H40.7182 Z"
        fill="url(#paint0_linear_967_9048)"
        fill-rule="evenodd"
        clip-rule="evenodd" />
  <defs>
    <linearGradient id="paint0_linear_967_9048"
                    x1="43.9007" y1="23.4388" x2="22.7679" y2="44.5716"
                    gradientUnits="userSpaceOnUse">
      <stop stop-color="#0096FF" />
      <stop offset="1" stop-color="#FF1E56" />
    </linearGradient>
    <radialGradient id="paint1_radial_967_9048"
                    cx="0" cy="0" r="1"
                    gradientTransform="translate(42) rotate(90) scale(108)"
                    gradientUnits="userSpaceOnUse">
      <stop />
      <stop offset="1" />
    </radialGradient>
    <linearGradient id="paint2_linear_967_9048"
                    x1="0" y1="0" x2="18.375" y2="34.125"
                    gradientUnits="userSpaceOnUse">
      <stop />
      <stop offset="1" stop-opacity="0" />
    </linearGradient>
  </defs>
</svg>
